<svg width="86" height="62" viewBox="0 0 86 62" fill="none" xmlns="http://www.w3.org/2000/svg">
<path d="M22.8766 31.9338C21.9591 31.7279 21.3307 31.6164 20.717 31.4484C16.2441 30.2502 11.7084 29.7727 7.12731 30.4615C5.428 30.7156 3.77471 31.3731 2.16421 31.9886C1.49022 32.2444 0.919315 32.8476 0.391444 33.3805C-0.0651107 33.8432 -0.155327 34.4647 0.299583 35.0132C0.726453 35.533 1.27231 35.3751 1.7975 35.1534C2.39376 34.8898 2.96925 34.5765 3.57227 34.3484C8.02048 32.6684 12.5789 32.9693 17.1118 33.7721C19.2511 34.1512 21.3238 34.8762 23.4263 35.4317C24.1812 35.6292 24.6157 36.0855 24.9279 36.7882C26.7042 40.7211 28.8431 44.4378 31.4297 47.8968C34.7782 52.3735 38.5905 56.3805 43.3805 59.3422C45.4063 60.5901 47.5987 61.3798 50.0101 61.3652C52.5913 61.3521 54.3804 59.7058 54.3956 57.1249C54.3985 55.9581 54.2184 54.7049 53.7822 53.6334C52.2588 49.8866 49.7465 46.8314 46.7003 44.1887C41.3028 39.5105 34.9499 36.5564 28.4173 33.9474C27.1065 33.4269 26.3848 32.6641 26.0497 31.3389C25.3934 28.7168 25.204 26.0846 25.708 23.4019C26.1305 21.1498 27.312 19.4416 29.4406 18.5973C30.8385 18.0365 32.3273 17.5968 33.814 17.3975C37.7432 16.8586 41.6291 17.2456 45.4746 18.2193C46.6318 18.5121 47.1996 19.0898 47.3801 20.3005C48.3963 27.0978 51.2719 33.1191 55.5043 38.4237C59.1141 42.9522 63.3156 46.9271 68.6394 49.4904C70.2168 50.2536 71.8305 50.911 73.6118 50.9829C76.0647 51.0818 77.5684 49.73 77.5684 47.2763C77.5765 43.875 76.5005 40.7261 74.8924 37.7776C72.6994 33.7776 69.7372 30.4214 66.3125 27.3937C62.6632 24.166 58.7774 21.311 54.5695 18.8988C53.3874 18.2239 52.1621 17.6334 50.9367 17.043C50.3734 16.7695 49.895 16.4825 49.8091 15.7817C49.3987 12.5395 49.4542 9.372 51.1556 6.42378C52.4191 4.22842 54.3651 3.24107 56.8057 3.12776C58.9279 3.03291 60.895 3.7075 62.7824 4.60062C66.346 6.28603 69.5654 8.52004 72.4986 11.1476C74.4844 12.9255 76.3847 14.7875 78.2848 16.6636C78.8458 17.22 79.2639 17.9307 79.7464 18.5642C79.696 18.6699 79.6455 18.7755 79.5881 18.874C79.2065 18.8424 78.7961 18.8813 78.4506 18.7581C75.6235 17.7791 72.8107 16.772 69.9835 15.793C69.2644 15.5463 68.538 15.3209 67.7965 15.2084C67.175 15.1182 66.6071 15.3679 66.3118 15.9947C65.9948 16.6708 66.1237 17.3012 66.6712 17.7727C67.1135 18.1513 67.6339 18.481 68.1765 18.7049C71.6431 20.1491 75.117 21.5721 78.6053 22.9669C79.5566 23.3499 80.5579 23.6838 81.5675 23.8693C83.5019 24.2254 85.0107 23.107 85.3033 21.1508C85.7914 17.8527 85.8412 14.5366 85.6436 11.2114C85.526 9.26578 85.543 7.30009 85.4749 5.34782C85.4513 4.81019 85.442 4.24441 85.2766 3.74799C85.0839 3.13819 84.5849 2.77325 83.8986 2.81683C83.2902 2.85402 82.842 3.16836 82.7166 3.76834C82.5245 4.72839 82.2686 5.69496 82.2745 6.65671C82.2798 8.50237 82.4689 10.3496 82.5591 12.196C82.6063 13.2854 82.6252 14.3746 82.6088 15.4563C82.6067 15.6967 82.435 15.9215 82.2759 16.3303C81.8899 15.9946 81.5876 15.7869 81.3636 15.5304C77.022 10.5855 72.1087 6.32864 66.4096 3.01255C63.8063 1.49099 61.0656 0.328875 58.0132 0.0479917C52.6361 -0.443858 48.7463 2.90271 47.3363 7.33134C46.7548 9.16488 46.5123 11.0438 46.5382 12.9674C46.5538 13.611 46.52 14.2471 46.5054 15.1309C45.7284 15.0252 45.1067 14.9633 44.4996 14.8449C40.4549 14.011 36.3836 13.8062 32.3185 14.5207C30.732 14.804 29.1506 15.3349 27.6879 16.0294C24.5779 17.5017 22.8934 20.1389 22.5957 23.5023C22.3929 25.7068 22.6282 27.9434 22.6867 30.1714C22.7039 30.6453 22.7917 31.1198 22.8835 31.955L22.8766 31.9338ZM50.7405 20.9376C50.8475 20.8325 50.9615 20.7345 51.0755 20.6365C51.6461 20.8889 52.281 21.0641 52.7871 21.4079C55.8948 23.4853 59.0881 25.4646 62.0526 27.7388C65.5089 30.385 68.6081 33.4382 71.023 37.122C72.8655 39.9381 74.1832 42.9477 74.5431 46.3097C74.7136 47.8527 74.2219 48.294 72.7765 47.8078C71.1971 47.2709 69.6474 46.5787 68.1765 45.7669C65.0166 44.0072 62.4074 41.538 59.9623 38.8935C55.5975 34.1817 52.5613 28.7389 50.9745 22.5024C50.8445 21.9992 50.8067 21.4615 50.7263 20.9517L50.7405 20.9376ZM28.9435 37.7068C29.5575 37.8464 29.9464 37.8569 30.2561 38.0151C33.6425 39.7485 37.1007 41.3552 40.3722 43.2856C44.2981 45.5964 47.6592 48.6166 50.0008 52.6108C50.6001 53.6343 51.0854 54.7557 51.3938 55.8969C51.9142 57.8672 51.1078 58.7159 49.1158 58.4724C47.4064 58.2597 45.8922 57.5466 44.4505 56.6219C41.7711 54.9088 39.5272 52.7115 37.3622 50.3946C34.1883 46.9801 31.6118 43.1747 29.4409 39.0688C29.253 38.7206 29.1576 38.3097 28.9437 37.6926L28.9435 37.7068Z" fill="white"/>
</svg>
